<?xml version="1.0" standalone="no"?>
<!DOCTYPE svg PUBLIC "-//W3C//DTD SVG 20010904//EN"
 "http://www.w3.org/TR/2001/REC-SVG-20010904/DTD/svg10.dtd">
<svg version="1.0" xmlns="http://www.w3.org/2000/svg"
 width="1080.000000pt" height="1080.000000pt" viewBox="0 0 1080.000000 1080.000000"
 preserveAspectRatio="xMidYMid meet">
<metadata>
Created by potrace 1.14, written by Peter Selinger 2001-2017
</metadata>
<g transform="translate(0.000000,1080.000000) scale(0.100000,-0.100000)"
fill="#000000" stroke="none">
<path d="M0 5400 l0 -5400 5400 0 5400 0 0 5400 0 5400 -5400 0 -5400 0 0
-5400z m5292 2895 c2 3 5 -2 5 -10 0 -11 -8 -13 -30 -9 -28 4 -29 3 -16 -13 8
-10 19 -21 24 -25 6 -5 6 -8 -1 -8 -7 0 -14 -7 -18 -15 -3 -8 -2 -14 2 -14 17
3 32 -2 32 -10 0 -5 -10 -7 -22 -3 -15 4 -19 2 -13 -8 5 -8 3 -11 -6 -8 -8 3
-14 16 -13 31 0 14 -3 24 -8 21 -13 -8 -2 -46 18 -61 15 -11 16 -16 6 -22 -8
-5 -13 -12 -13 -17 0 -5 -5 -9 -12 -10 -30 -3 -35 -5 -41 -21 -6 -15 -5 -16
11 -1 10 8 26 15 35 15 19 0 34 -27 19 -36 -15 -10 -17 -71 -3 -80 10 -6 8
-10 -8 -14 -14 -4 -19 -10 -14 -18 4 -8 3 -10 -5 -5 -6 4 -9 12 -6 17 7 11 3
11 -20 3 -15 -6 -15 -8 0 -24 9 -10 26 -16 38 -14 12 2 16 1 8 -2 -11 -5 -11
-8 0 -15 9 -6 4 -8 -15 -5 -16 3 -33 11 -38 18 -6 11 -8 11 -8 0 0 -8 -5 -10
-12 -6 -9 5 -9 3 1 -9 7 -9 18 -14 24 -10 6 4 7 1 1 -8 -5 -8 -10 -25 -10 -39
-1 -14 -5 -33 -9 -42 -5 -13 -2 -18 10 -18 9 0 14 4 11 8 -2 4 -1 14 3 21 6 9
9 5 9 -12 0 -18 -7 -26 -24 -30 -13 -2 -28 1 -33 6 -8 8 -11 7 -11 -1 0 -15
35 -34 45 -24 5 4 5 1 1 -5 -4 -7 -2 -22 4 -34 9 -15 9 -24 1 -32 -14 -14 -14
-30 0 -21 7 4 10 0 7 -11 -1 -10 -11 -23 -21 -29 -14 -9 -21 -7 -32 8 -14 18
-36 14 -34 -7 0 -9 2 -8 6 1 7 18 23 4 24 -21 0 -12 3 -16 6 -9 2 6 10 12 16
12 6 0 4 -7 -5 -16 -17 -18 -43 -10 -32 9 4 7 4 9 0 5 -4 -3 -8 -10 -7 -15 0
-4 -10 -13 -22 -20 -17 -10 -18 -12 -5 -13 9 0 19 -8 21 -17 3 -11 5 -5 6 12
l2 30 18 -23 c12 -14 21 -18 23 -10 3 8 6 6 10 -4 5 -11 0 -18 -13 -21 -10 -3
-17 -2 -15 2 3 4 0 13 -5 21 -6 10 -8 4 -4 -19 5 -28 3 -32 -7 -23 -15 12 -31
4 -36 -17 -2 -11 0 -12 10 -4 8 6 21 7 33 2 19 -7 19 -8 -2 -8 -14 -1 -23 -7
-23 -16 0 -13 4 -14 20 -5 14 7 20 7 20 0 0 -5 -7 -10 -16 -10 -14 0 -15 -2
-3 -17 13 -16 12 -17 -4 -4 -15 12 -20 12 -30 1 -7 -7 -7 -10 -1 -7 6 3 11 0
11 -7 0 -8 -6 -12 -14 -9 -8 3 -13 -2 -13 -12 0 -15 -2 -16 -17 -4 -15 11 -15
10 1 -8 16 -19 17 -25 6 -38 -8 -9 -9 -15 -3 -13 6 2 12 -1 13 -7 1 -5 7 -16
13 -24 9 -12 9 -13 0 -7 -8 4 -13 2 -13 -5 0 -6 -8 -18 -17 -25 -17 -13 -17
-14 0 -8 24 9 21 -13 -4 -26 -16 -9 -18 -14 -8 -26 6 -8 19 -14 28 -15 9 0 3
-5 -13 -9 -16 -5 -34 -6 -40 -3 -7 5 -7 2 0 -8 6 -8 10 -23 8 -34 -1 -10 3
-26 9 -34 9 -11 9 -13 0 -8 -6 4 -15 3 -18 -3 -4 -6 -3 -10 2 -9 18 3 21 -3
13 -36 -4 -19 -5 -33 -1 -31 3 2 11 -7 18 -20 8 -18 8 -22 0 -17 -7 4 -20 6
-29 5 -10 -2 -18 1 -18 7 0 6 8 8 18 5 13 -5 14 -4 3 4 -16 12 -44 4 -35 -9 3
-5 1 -9 -5 -9 -6 0 -8 -7 -4 -16 3 -9 9 -12 12 -7 8 12 28 10 41 -3 7 -7 6
-16 -5 -30 -14 -18 -14 -18 -10 4 2 12 1 22 -3 22 -16 -1 -38 -26 -35 -37 3
-7 -2 -13 -11 -13 -14 0 -14 -3 -4 -20 7 -11 17 -20 22 -20 4 0 3 7 -4 15 -10
13 -9 15 9 15 21 0 21 -1 6 -29 -8 -16 -25 -33 -37 -36 -20 -7 -20 -8 -3 -17
14 -8 15 -12 4 -19 -10 -6 -11 -9 -1 -9 6 0 12 -4 12 -9 0 -5 -8 -7 -19 -4
-10 3 -22 -1 -26 -8 -5 -7 -4 -10 3 -5 6 3 13 2 17 -4 3 -5 15 -10 26 -10 10
0 19 -4 19 -9 0 -5 -8 -8 -17 -6 -10 2 -18 4 -18 5 0 1 -11 4 -24 6 -25 5 -24
-5 1 -10 26 -6 48 -18 48 -28 0 -6 -6 -6 -14 1 -10 8 -16 9 -21 1 -3 -6 -12
-7 -18 -3 -7 4 -6 0 2 -10 10 -13 11 -20 2 -31 -8 -9 -8 -16 -2 -20 13 -8 30
24 23 44 -5 13 -3 13 12 1 9 -8 14 -16 11 -19 -3 -3 1 -12 8 -21 10 -14 10
-14 -4 -3 -13 10 -18 10 -28 -1 -6 -8 -7 -18 -3 -22 4 -5 1 -5 -5 -1 -7 4 -13
2 -13 -3 0 -6 -5 -11 -11 -11 -6 0 -8 7 -5 16 5 14 4 15 -9 4 -15 -12 -12 -30
6 -30 18 0 225 -176 329 -280 118 -117 227 -249 319 -387 65 -99 187 -327 216
-405 l18 -48 1213 0 c1344 0 1326 1 1553 -65 627 -180 1098 -708 1217 -1360
13 -74 18 -150 18 -290 0 -140 -5 -216 -18 -290 -86 -473 -346 -870 -745
-1137 -167 -111 -314 -178 -506 -228 -224 -58 -52 -55 -2765 -55 -2685 0
-2543 -3 -2810 51 -615 124 -1200 520 -1555 1054 -222 334 -349 673 -407 1085
-17 118 -16 493 1 615 55 401 205 797 419 1105 195 281 476 546 762 721 314
191 703 319 1080 355 161 15 436 6 600 -20 119 -19 322 -67 384 -91 16 -6 33
-7 37 -3 4 4 14 35 24 68 75 265 248 587 448 835 153 190 492 495 522 470 7
-6 14 -8 17 -5z m24 -48 c4 -3 -4 -4 -16 -2 -30 6 -40 16 -12 12 12 -2 24 -6
28 -10z m-37 -125 c-11 -2 -16 -8 -13 -14 4 -7 2 -8 -4 -4 -9 5 -9 13 -2 27 9
15 13 17 24 7 12 -11 11 -14 -5 -16z m8 -47 c0 -8 -4 -12 -9 -9 -5 3 -6 10 -3
15 9 13 12 11 12 -6z m-17 -19 c0 -3 -4 -8 -10 -11 -5 -3 -10 -1 -10 4 0 6 5
11 10 11 6 0 10 -2 10 -4z m-53 -188 c1 -10 -2 -18 -6 -18 -5 0 -11 8 -13 18
-3 10 0 19 6 19 7 0 13 -9 13 -19z m-10 -278 c-1 -11 -7 -22 -14 -24 -16 -7
-16 -1 -1 24 16 25 17 25 15 0z m-86 -190 c-14 -13 -18 -20 -10 -21 11 0 11
-2 1 -6 -6 -2 -10 -9 -7 -13 3 -5 0 -12 -6 -16 -9 -5 -10 0 -7 14 4 13 1 22
-5 22 -7 0 2 9 18 19 39 25 46 25 16 1z m49 -6 c0 -8 -19 -13 -24 -6 -3 5 1 9
9 9 8 0 15 -2 15 -3z m-77 -168 c4 -9 -2 -12 -16 -11 -32 4 -33 4 -17 15 20
13 27 12 33 -4z m-11 -53 c-6 -2 -10 -8 -7 -12 2 -5 -2 -17 -10 -27 -13 -18
-14 -17 -12 13 2 26 6 33 22 32 11 0 14 -3 7 -6z m28 -68 c0 -1 -12 -2 -26 -2
-17 0 -22 2 -13 7 10 7 39 3 39 -5z m-26 -63 c3 -5 -1 -9 -9 -9 -8 0 -12 4 -9
9 3 4 7 8 9 8 2 0 6 -4 9 -8z m-74 -212 c0 -5 -8 -10 -17 -10 -15 0 -16 2 -3
10 19 12 20 12 20 0z m-27 -225 c-3 -9 -8 -14 -10 -11 -3 3 -2 9 2 15 9 16 15
13 8 -4z"/>
<path d="M5193 8057 c-6 -6 -14 -19 -18 -27 -8 -13 -7 -13 10 0 17 14 18 13
12 -3 -5 -12 -3 -16 5 -11 7 5 9 2 5 -9 -3 -8 0 -18 7 -20 9 -4 13 4 12 24 -1
16 -5 29 -9 29 -5 0 -6 4 -2 9 9 15 -12 22 -22 8z"/>
<path d="M5146 7842 c-3 -5 1 -9 9 -9 8 0 12 4 9 9 -3 4 -7 8 -9 8 -2 0 -6 -4
-9 -8z"/>
<path d="M5149 7726 c4 -12 7 -36 5 -53 -2 -32 17 -46 31 -23 3 6 2 10 -3 10
-16 0 -22 41 -6 47 8 3 11 9 8 14 -3 5 -10 6 -16 3 -7 -5 -9 -2 -6 8 4 8 1 15
-7 15 -9 0 -11 -7 -6 -21z"/>
<path d="M5065 7439 c-4 -6 -5 -12 -2 -15 2 -3 7 2 10 11 7 17 1 20 -8 4z"/>
<path d="M4966 7121 c-4 -5 -2 -12 3 -15 5 -4 12 -2 15 3 4 5 2 12 -3 15 -5 4
-12 2 -15 -3z"/>
<path d="M4937 6915 c-4 -8 -2 -17 3 -20 6 -4 10 3 10 14 0 25 -6 27 -13 6z"/>
<path d="M4886 6671 c-3 -4 4 -7 14 -6 27 2 33 10 10 12 -11 1 -22 -2 -24 -6z"/>
</g>
</svg>
